<mxfile host="Electron" modified="2024-05-12T16:34:11.507Z" agent="Mozilla/5.0 (Macintosh; Intel Mac OS X 10_15_7) AppleWebKit/537.36 (KHTML, like Gecko) draw.io/24.2.5 Chrome/120.0.6099.109 Electron/28.1.0 Safari/537.36" etag="zJOEcon9o1QjBmXJJqPM" version="24.2.5" type="device">
  <diagram name="Page-1" id="wZVMlMU-lRKxCCmsyMqi">
    <mxGraphModel dx="2174" dy="648" grid="1" gridSize="10" guides="1" tooltips="1" connect="1" arrows="1" fold="1" page="1" pageScale="1" pageWidth="827" pageHeight="1169" math="0" shadow="0">
      <root>
        <mxCell id="0" />
        <mxCell id="1" parent="0" />
        <mxCell id="d-7TQ9NOi-kOvA5M9aPc-60" value="" style="rounded=0;whiteSpace=wrap;html=1;" parent="1" vertex="1">
          <mxGeometry y="90" width="820" height="1160" as="geometry" />
        </mxCell>
        <mxCell id="d-7TQ9NOi-kOvA5M9aPc-1" value="&lt;span style=&quot;font-size: 13px;&quot;&gt;Add/update achievement&lt;/span&gt;" style="ellipse;whiteSpace=wrap;html=1;" parent="1" vertex="1">
          <mxGeometry x="90" y="130" width="120" height="80" as="geometry" />
        </mxCell>
        <mxCell id="d-7TQ9NOi-kOvA5M9aPc-2" value="&lt;font style=&quot;font-size: 13px;&quot;&gt;Add/update experience&lt;/font&gt;" style="ellipse;whiteSpace=wrap;html=1;" parent="1" vertex="1">
          <mxGeometry x="340" y="220" width="120" height="80" as="geometry" />
        </mxCell>
        <mxCell id="d-7TQ9NOi-kOvA5M9aPc-3" value="&lt;font style=&quot;font-size: 13px;&quot;&gt;Add/update skill&lt;/font&gt;" style="ellipse;whiteSpace=wrap;html=1;" parent="1" vertex="1">
          <mxGeometry x="190" y="340" width="120" height="80" as="geometry" />
        </mxCell>
        <mxCell id="d-7TQ9NOi-kOvA5M9aPc-4" value="&lt;font style=&quot;font-size: 13px;&quot;&gt;Add/update profile&lt;/font&gt;" style="ellipse;whiteSpace=wrap;html=1;" parent="1" vertex="1">
          <mxGeometry x="190" y="230" width="120" height="80" as="geometry" />
        </mxCell>
        <mxCell id="d-7TQ9NOi-kOvA5M9aPc-5" value="&lt;font style=&quot;font-size: 13px;&quot;&gt;Add/update education&lt;/font&gt;" style="ellipse;whiteSpace=wrap;html=1;" parent="1" vertex="1">
          <mxGeometry x="230" y="120" width="120" height="80" as="geometry" />
        </mxCell>
        <mxCell id="d-7TQ9NOi-kOvA5M9aPc-6" value="" style="endArrow=block;endSize=16;endFill=0;html=1;rounded=0;entryX=0;entryY=0;entryDx=0;entryDy=0;exitX=0.5;exitY=1;exitDx=0;exitDy=0;" parent="1" source="d-7TQ9NOi-kOvA5M9aPc-1" target="d-7TQ9NOi-kOvA5M9aPc-4" edge="1">
          <mxGeometry x="-0.0009" width="160" relative="1" as="geometry">
            <mxPoint x="330" y="370" as="sourcePoint" />
            <mxPoint x="490" y="370" as="targetPoint" />
            <mxPoint as="offset" />
          </mxGeometry>
        </mxCell>
        <mxCell id="d-7TQ9NOi-kOvA5M9aPc-7" value="" style="endArrow=block;endSize=16;endFill=0;html=1;rounded=0;exitX=0.5;exitY=1;exitDx=0;exitDy=0;" parent="1" source="d-7TQ9NOi-kOvA5M9aPc-5" target="d-7TQ9NOi-kOvA5M9aPc-4" edge="1">
          <mxGeometry x="-0.0009" width="160" relative="1" as="geometry">
            <mxPoint x="140" y="210" as="sourcePoint" />
            <mxPoint x="218" y="252" as="targetPoint" />
            <mxPoint as="offset" />
          </mxGeometry>
        </mxCell>
        <mxCell id="d-7TQ9NOi-kOvA5M9aPc-8" value="" style="endArrow=block;endSize=16;endFill=0;html=1;rounded=0;exitX=0;exitY=0.5;exitDx=0;exitDy=0;entryX=1;entryY=0.5;entryDx=0;entryDy=0;" parent="1" source="d-7TQ9NOi-kOvA5M9aPc-2" target="d-7TQ9NOi-kOvA5M9aPc-4" edge="1">
          <mxGeometry x="-0.0009" width="160" relative="1" as="geometry">
            <mxPoint x="300" y="210" as="sourcePoint" />
            <mxPoint x="281" y="243" as="targetPoint" />
            <mxPoint as="offset" />
          </mxGeometry>
        </mxCell>
        <mxCell id="d-7TQ9NOi-kOvA5M9aPc-9" value="" style="endArrow=block;endSize=16;endFill=0;html=1;rounded=0;exitX=0.5;exitY=0;exitDx=0;exitDy=0;entryX=0.5;entryY=1;entryDx=0;entryDy=0;" parent="1" source="d-7TQ9NOi-kOvA5M9aPc-3" target="d-7TQ9NOi-kOvA5M9aPc-4" edge="1">
          <mxGeometry x="-0.0009" width="160" relative="1" as="geometry">
            <mxPoint x="350" y="270" as="sourcePoint" />
            <mxPoint x="320" y="280" as="targetPoint" />
            <mxPoint as="offset" />
          </mxGeometry>
        </mxCell>
        <mxCell id="d-7TQ9NOi-kOvA5M9aPc-10" value="&lt;font style=&quot;font-size: 13px;&quot;&gt;Delete recommendation&lt;/font&gt;" style="ellipse;whiteSpace=wrap;html=1;" parent="1" vertex="1">
          <mxGeometry x="50" y="440" width="120" height="80" as="geometry" />
        </mxCell>
        <mxCell id="d-7TQ9NOi-kOvA5M9aPc-11" value="&lt;font style=&quot;font-size: 13px;&quot;&gt;Request Recommendation&lt;/font&gt;" style="ellipse;whiteSpace=wrap;html=1;" parent="1" vertex="1">
          <mxGeometry x="230" y="505" width="120" height="80" as="geometry" />
        </mxCell>
        <mxCell id="d-7TQ9NOi-kOvA5M9aPc-12" value="&lt;font style=&quot;font-size: 13px;&quot;&gt;Accept Recommendation&lt;/font&gt;" style="ellipse;whiteSpace=wrap;html=1;" parent="1" vertex="1">
          <mxGeometry x="330" y="370" width="120" height="80" as="geometry" />
        </mxCell>
        <mxCell id="d-7TQ9NOi-kOvA5M9aPc-13" value="Extends" style="endArrow=block;endSize=16;endFill=0;html=1;rounded=0;entryX=0;entryY=0;entryDx=0;entryDy=0;exitX=1;exitY=1;exitDx=0;exitDy=0;dashed=1;" parent="1" source="d-7TQ9NOi-kOvA5M9aPc-10" target="d-7TQ9NOi-kOvA5M9aPc-11" edge="1">
          <mxGeometry width="160" relative="1" as="geometry">
            <mxPoint x="250" y="650" as="sourcePoint" />
            <mxPoint x="410" y="650" as="targetPoint" />
          </mxGeometry>
        </mxCell>
        <mxCell id="d-7TQ9NOi-kOvA5M9aPc-14" value="Extends" style="endArrow=block;endSize=16;endFill=0;html=1;rounded=0;exitX=0.5;exitY=1;exitDx=0;exitDy=0;dashed=1;entryX=0.5;entryY=0;entryDx=0;entryDy=0;" parent="1" source="d-7TQ9NOi-kOvA5M9aPc-12" target="d-7TQ9NOi-kOvA5M9aPc-11" edge="1">
          <mxGeometry x="0.0062" width="160" relative="1" as="geometry">
            <mxPoint x="302" y="548" as="sourcePoint" />
            <mxPoint x="390" y="470" as="targetPoint" />
            <mxPoint as="offset" />
          </mxGeometry>
        </mxCell>
        <mxCell id="d-7TQ9NOi-kOvA5M9aPc-17" value="&lt;font style=&quot;font-size: 13px;&quot;&gt;accept/ignore connection invitation&lt;/font&gt;" style="ellipse;whiteSpace=wrap;html=1;" parent="1" vertex="1">
          <mxGeometry x="180" y="585" width="120" height="80" as="geometry" />
        </mxCell>
        <mxCell id="d-7TQ9NOi-kOvA5M9aPc-18" value="&lt;font style=&quot;font-size: 13px;&quot;&gt;send connection invitation&lt;/font&gt;" style="ellipse;whiteSpace=wrap;html=1;" parent="1" vertex="1">
          <mxGeometry x="386" y="600" width="120" height="80" as="geometry" />
        </mxCell>
        <mxCell id="d-7TQ9NOi-kOvA5M9aPc-20" value="Extends" style="endArrow=block;endSize=16;endFill=0;html=1;rounded=0;exitX=1;exitY=0.5;exitDx=0;exitDy=0;dashed=1;entryX=0;entryY=0.5;entryDx=0;entryDy=0;" parent="1" source="d-7TQ9NOi-kOvA5M9aPc-17" target="d-7TQ9NOi-kOvA5M9aPc-18" edge="1">
          <mxGeometry width="160" relative="1" as="geometry">
            <mxPoint x="550" y="757" as="sourcePoint" />
            <mxPoint x="420" y="610" as="targetPoint" />
          </mxGeometry>
        </mxCell>
        <mxCell id="d-7TQ9NOi-kOvA5M9aPc-22" value="&lt;font style=&quot;font-size: 13px;&quot;&gt;Post a Job&lt;/font&gt;" style="ellipse;whiteSpace=wrap;html=1;" parent="1" vertex="1">
          <mxGeometry x="50" y="560" width="120" height="80" as="geometry" />
        </mxCell>
        <mxCell id="d-7TQ9NOi-kOvA5M9aPc-23" value="&lt;font style=&quot;font-size: 13px;&quot;&gt;follow/unfollow user&lt;/font&gt;" style="ellipse;whiteSpace=wrap;html=1;" parent="1" vertex="1">
          <mxGeometry x="40" y="1100" width="120" height="80" as="geometry" />
        </mxCell>
        <mxCell id="d-7TQ9NOi-kOvA5M9aPc-24" value="&lt;font style=&quot;font-size: 13px;&quot;&gt;view analytics&lt;/font&gt;" style="ellipse;whiteSpace=wrap;html=1;" parent="1" vertex="1">
          <mxGeometry x="50" y="690" width="120" height="80" as="geometry" />
        </mxCell>
        <mxCell id="d-7TQ9NOi-kOvA5M9aPc-25" value="&lt;font style=&quot;font-size: 10px;&quot;&gt;search users/groups/jobs/pages&lt;/font&gt;" style="ellipse;whiteSpace=wrap;html=1;fontSize=10;" parent="1" vertex="1">
          <mxGeometry x="120" y="820" width="120" height="80" as="geometry" />
        </mxCell>
        <mxCell id="d-7TQ9NOi-kOvA5M9aPc-27" value="&lt;font style=&quot;font-size: 10px;&quot;&gt;update/delete/react post&lt;/font&gt;" style="ellipse;whiteSpace=wrap;html=1;fontSize=10;" parent="1" vertex="1">
          <mxGeometry x="131" y="935" width="120" height="80" as="geometry" />
        </mxCell>
        <mxCell id="d-7TQ9NOi-kOvA5M9aPc-28" value="&lt;font style=&quot;font-size: 10px;&quot;&gt;update/delete/react comment&lt;/font&gt;" style="ellipse;whiteSpace=wrap;html=1;fontSize=10;" parent="1" vertex="1">
          <mxGeometry x="5" y="960" width="120" height="80" as="geometry" />
        </mxCell>
        <mxCell id="d-7TQ9NOi-kOvA5M9aPc-30" value="&lt;font style=&quot;font-size: 13px;&quot;&gt;add/share post&lt;/font&gt;" style="ellipse;whiteSpace=wrap;html=1;" parent="1" vertex="1">
          <mxGeometry x="300" y="720" width="120" height="80" as="geometry" />
        </mxCell>
        <mxCell id="d-7TQ9NOi-kOvA5M9aPc-31" value="&lt;font style=&quot;font-size: 13px;&quot;&gt;comment on post/comment&lt;/font&gt;" style="ellipse;whiteSpace=wrap;html=1;" parent="1" vertex="1">
          <mxGeometry x="300" y="820" width="120" height="80" as="geometry" />
        </mxCell>
        <mxCell id="d-7TQ9NOi-kOvA5M9aPc-32" value="&lt;font style=&quot;font-size: 13px;&quot;&gt;send message&lt;/font&gt;" style="ellipse;whiteSpace=wrap;html=1;" parent="1" vertex="1">
          <mxGeometry x="300" y="930" width="120" height="80" as="geometry" />
        </mxCell>
        <mxCell id="d-7TQ9NOi-kOvA5M9aPc-33" value="&lt;font style=&quot;font-size: 13px;&quot;&gt;create/join/leave group&lt;/font&gt;" style="ellipse;whiteSpace=wrap;html=1;" parent="1" vertex="1">
          <mxGeometry x="120" y="1020" width="120" height="80" as="geometry" />
        </mxCell>
        <mxCell id="d-7TQ9NOi-kOvA5M9aPc-34" value="&lt;font style=&quot;font-size: 13px;&quot;&gt;block/unblock user&lt;/font&gt;" style="ellipse;whiteSpace=wrap;html=1;" parent="1" vertex="1">
          <mxGeometry x="506" y="990" width="120" height="80" as="geometry" />
        </mxCell>
        <mxCell id="d-7TQ9NOi-kOvA5M9aPc-35" value="&lt;font style=&quot;font-size: 13px;&quot;&gt;delete group&lt;/font&gt;" style="ellipse;whiteSpace=wrap;html=1;" parent="1" vertex="1">
          <mxGeometry x="330" y="1040" width="120" height="80" as="geometry" />
        </mxCell>
        <mxCell id="d-7TQ9NOi-kOvA5M9aPc-36" value="&lt;font style=&quot;font-size: 13px;&quot;&gt;enable/disable page&lt;/font&gt;" style="ellipse;whiteSpace=wrap;html=1;" parent="1" vertex="1">
          <mxGeometry x="529" y="1100" width="120" height="80" as="geometry" />
        </mxCell>
        <mxCell id="d-7TQ9NOi-kOvA5M9aPc-37" value="&lt;font style=&quot;font-size: 13px;&quot;&gt;add recommendation&lt;/font&gt;" style="ellipse;whiteSpace=wrap;html=1;" parent="1" vertex="1">
          <mxGeometry x="525" y="370" width="120" height="80" as="geometry" />
        </mxCell>
        <mxCell id="d-7TQ9NOi-kOvA5M9aPc-38" value="" style="endArrow=block;dashed=1;endFill=0;endSize=12;html=1;rounded=0;entryX=0;entryY=0.5;entryDx=0;entryDy=0;exitX=1;exitY=0.5;exitDx=0;exitDy=0;" parent="1" source="d-7TQ9NOi-kOvA5M9aPc-12" target="d-7TQ9NOi-kOvA5M9aPc-37" edge="1">
          <mxGeometry width="160" relative="1" as="geometry">
            <mxPoint x="330" y="610" as="sourcePoint" />
            <mxPoint x="490" y="610" as="targetPoint" />
          </mxGeometry>
        </mxCell>
        <mxCell id="d-7TQ9NOi-kOvA5M9aPc-39" value="&amp;lt;&amp;lt;include&amp;gt;&amp;gt;" style="text;html=1;align=center;verticalAlign=middle;resizable=0;points=[];autosize=1;strokeColor=none;fillColor=none;" parent="1" vertex="1">
          <mxGeometry x="439" y="384" width="90" height="30" as="geometry" />
        </mxCell>
        <mxCell id="d-7TQ9NOi-kOvA5M9aPc-40" value="&lt;font style=&quot;font-size: 13px;&quot;&gt;recommendation notification&lt;/font&gt;" style="ellipse;whiteSpace=wrap;html=1;" parent="1" vertex="1">
          <mxGeometry x="506" y="505" width="120" height="80" as="geometry" />
        </mxCell>
        <mxCell id="d-7TQ9NOi-kOvA5M9aPc-41" value="" style="endArrow=block;dashed=1;endFill=0;endSize=12;html=1;rounded=0;entryX=0;entryY=0.5;entryDx=0;entryDy=0;exitX=1;exitY=0.5;exitDx=0;exitDy=0;" parent="1" source="d-7TQ9NOi-kOvA5M9aPc-11" target="d-7TQ9NOi-kOvA5M9aPc-40" edge="1">
          <mxGeometry width="160" relative="1" as="geometry">
            <mxPoint x="431" y="550" as="sourcePoint" />
            <mxPoint x="471" y="750" as="targetPoint" />
          </mxGeometry>
        </mxCell>
        <mxCell id="d-7TQ9NOi-kOvA5M9aPc-42" value="&amp;lt;&amp;lt;include&amp;gt;&amp;gt;" style="text;html=1;align=center;verticalAlign=middle;resizable=0;points=[];autosize=1;strokeColor=none;fillColor=none;" parent="1" vertex="1">
          <mxGeometry x="380" y="520" width="90" height="30" as="geometry" />
        </mxCell>
        <mxCell id="d-7TQ9NOi-kOvA5M9aPc-43" value="&lt;font style=&quot;font-size: 13px;&quot;&gt;connection invitation notification&lt;/font&gt;" style="ellipse;whiteSpace=wrap;html=1;" parent="1" vertex="1">
          <mxGeometry x="590" y="600" width="120" height="80" as="geometry" />
        </mxCell>
        <mxCell id="d-7TQ9NOi-kOvA5M9aPc-44" value="&lt;font style=&quot;font-size: 13px;&quot;&gt;new post notification&lt;/font&gt;" style="ellipse;whiteSpace=wrap;html=1;" parent="1" vertex="1">
          <mxGeometry x="600" y="700" width="120" height="80" as="geometry" />
        </mxCell>
        <mxCell id="d-7TQ9NOi-kOvA5M9aPc-45" value="&lt;font style=&quot;font-size: 13px;&quot;&gt;new comment notif.&lt;/font&gt;" style="ellipse;whiteSpace=wrap;html=1;" parent="1" vertex="1">
          <mxGeometry x="610" y="810" width="120" height="80" as="geometry" />
        </mxCell>
        <mxCell id="d-7TQ9NOi-kOvA5M9aPc-46" value="&lt;font style=&quot;font-size: 13px;&quot;&gt;message notif.&lt;/font&gt;" style="ellipse;whiteSpace=wrap;html=1;" parent="1" vertex="1">
          <mxGeometry x="610" y="920" width="120" height="80" as="geometry" />
        </mxCell>
        <mxCell id="d-7TQ9NOi-kOvA5M9aPc-48" value="&lt;font style=&quot;font-size: 11px;&quot;&gt;create/follow/unfollow page&lt;/font&gt;" style="ellipse;whiteSpace=wrap;html=1;fontSize=11;" parent="1" vertex="1">
          <mxGeometry x="30" y="300" width="120" height="80" as="geometry" />
        </mxCell>
        <mxCell id="d-7TQ9NOi-kOvA5M9aPc-51" value="" style="endArrow=block;dashed=1;endFill=0;endSize=12;html=1;rounded=0;entryX=0;entryY=0.5;entryDx=0;entryDy=0;exitX=1;exitY=0.5;exitDx=0;exitDy=0;" parent="1" source="d-7TQ9NOi-kOvA5M9aPc-18" target="d-7TQ9NOi-kOvA5M9aPc-43" edge="1">
          <mxGeometry width="160" relative="1" as="geometry">
            <mxPoint x="373" y="770" as="sourcePoint" />
            <mxPoint x="529" y="770" as="targetPoint" />
          </mxGeometry>
        </mxCell>
        <mxCell id="d-7TQ9NOi-kOvA5M9aPc-52" value="include" style="edgeLabel;html=1;align=center;verticalAlign=middle;resizable=0;points=[];" parent="d-7TQ9NOi-kOvA5M9aPc-51" vertex="1" connectable="0">
          <mxGeometry x="-0.3303" y="2" relative="1" as="geometry">
            <mxPoint as="offset" />
          </mxGeometry>
        </mxCell>
        <mxCell id="d-7TQ9NOi-kOvA5M9aPc-53" value="" style="endArrow=block;dashed=1;endFill=0;endSize=12;html=1;rounded=0;entryX=0;entryY=0.5;entryDx=0;entryDy=0;exitX=1;exitY=0.5;exitDx=0;exitDy=0;" parent="1" source="d-7TQ9NOi-kOvA5M9aPc-30" target="d-7TQ9NOi-kOvA5M9aPc-44" edge="1">
          <mxGeometry width="160" relative="1" as="geometry">
            <mxPoint x="516" y="650" as="sourcePoint" />
            <mxPoint x="600" y="650" as="targetPoint" />
          </mxGeometry>
        </mxCell>
        <mxCell id="d-7TQ9NOi-kOvA5M9aPc-54" value="include" style="edgeLabel;html=1;align=center;verticalAlign=middle;resizable=0;points=[];" parent="d-7TQ9NOi-kOvA5M9aPc-53" vertex="1" connectable="0">
          <mxGeometry x="-0.3303" y="2" relative="1" as="geometry">
            <mxPoint as="offset" />
          </mxGeometry>
        </mxCell>
        <mxCell id="d-7TQ9NOi-kOvA5M9aPc-56" value="" style="endArrow=block;dashed=1;endFill=0;endSize=12;html=1;rounded=0;entryX=0;entryY=0.5;entryDx=0;entryDy=0;exitX=1;exitY=0.5;exitDx=0;exitDy=0;" parent="1" source="d-7TQ9NOi-kOvA5M9aPc-31" target="d-7TQ9NOi-kOvA5M9aPc-45" edge="1">
          <mxGeometry width="160" relative="1" as="geometry">
            <mxPoint x="430" y="770" as="sourcePoint" />
            <mxPoint x="610" y="750" as="targetPoint" />
          </mxGeometry>
        </mxCell>
        <mxCell id="d-7TQ9NOi-kOvA5M9aPc-57" value="include" style="edgeLabel;html=1;align=center;verticalAlign=middle;resizable=0;points=[];" parent="d-7TQ9NOi-kOvA5M9aPc-56" vertex="1" connectable="0">
          <mxGeometry x="-0.3303" y="2" relative="1" as="geometry">
            <mxPoint as="offset" />
          </mxGeometry>
        </mxCell>
        <mxCell id="d-7TQ9NOi-kOvA5M9aPc-58" value="" style="endArrow=block;dashed=1;endFill=0;endSize=12;html=1;rounded=0;entryX=0;entryY=0.5;entryDx=0;entryDy=0;" parent="1" source="d-7TQ9NOi-kOvA5M9aPc-32" target="d-7TQ9NOi-kOvA5M9aPc-46" edge="1">
          <mxGeometry width="160" relative="1" as="geometry">
            <mxPoint x="430" y="870" as="sourcePoint" />
            <mxPoint x="620" y="860" as="targetPoint" />
          </mxGeometry>
        </mxCell>
        <mxCell id="d-7TQ9NOi-kOvA5M9aPc-59" value="include" style="edgeLabel;html=1;align=center;verticalAlign=middle;resizable=0;points=[];" parent="d-7TQ9NOi-kOvA5M9aPc-58" vertex="1" connectable="0">
          <mxGeometry x="-0.3303" y="2" relative="1" as="geometry">
            <mxPoint as="offset" />
          </mxGeometry>
        </mxCell>
        <mxCell id="d-7TQ9NOi-kOvA5M9aPc-61" value="User" style="shape=umlActor;verticalLabelPosition=bottom;verticalAlign=top;html=1;outlineConnect=0;" parent="1" vertex="1">
          <mxGeometry x="-240" y="620" width="30" height="60" as="geometry" />
        </mxCell>
        <mxCell id="d-7TQ9NOi-kOvA5M9aPc-62" value="" style="endArrow=none;html=1;rounded=0;" parent="1" edge="1">
          <mxGeometry width="50" height="50" relative="1" as="geometry">
            <mxPoint x="-150" y="1140" as="sourcePoint" />
            <mxPoint x="-150" y="270" as="targetPoint" />
          </mxGeometry>
        </mxCell>
        <mxCell id="d-7TQ9NOi-kOvA5M9aPc-65" value="" style="endArrow=none;html=1;rounded=0;exitX=1;exitY=0.3333333333333333;exitDx=0;exitDy=0;exitPerimeter=0;" parent="1" source="d-7TQ9NOi-kOvA5M9aPc-61" edge="1">
          <mxGeometry width="50" height="50" relative="1" as="geometry">
            <mxPoint x="140" y="660" as="sourcePoint" />
            <mxPoint x="-150" y="640" as="targetPoint" />
          </mxGeometry>
        </mxCell>
        <mxCell id="d-7TQ9NOi-kOvA5M9aPc-69" value="" style="endArrow=none;html=1;rounded=0;entryX=0;entryY=0.5;entryDx=0;entryDy=0;" parent="1" target="d-7TQ9NOi-kOvA5M9aPc-22" edge="1">
          <mxGeometry width="50" height="50" relative="1" as="geometry">
            <mxPoint x="-150" y="600" as="sourcePoint" />
            <mxPoint x="-383" y="165" as="targetPoint" />
          </mxGeometry>
        </mxCell>
        <mxCell id="d-7TQ9NOi-kOvA5M9aPc-70" value="" style="endArrow=none;html=1;rounded=0;" parent="1" target="d-7TQ9NOi-kOvA5M9aPc-4" edge="1">
          <mxGeometry width="50" height="50" relative="1" as="geometry">
            <mxPoint x="-150" y="270" as="sourcePoint" />
            <mxPoint x="-373" y="175" as="targetPoint" />
          </mxGeometry>
        </mxCell>
        <mxCell id="d-7TQ9NOi-kOvA5M9aPc-71" value="" style="endArrow=none;html=1;rounded=0;entryX=0;entryY=1;entryDx=0;entryDy=0;" parent="1" target="d-7TQ9NOi-kOvA5M9aPc-12" edge="1">
          <mxGeometry width="50" height="50" relative="1" as="geometry">
            <mxPoint x="-150" y="430" as="sourcePoint" />
            <mxPoint x="200" y="280" as="targetPoint" />
          </mxGeometry>
        </mxCell>
        <mxCell id="d-7TQ9NOi-kOvA5M9aPc-72" value="" style="endArrow=none;html=1;rounded=0;entryX=0;entryY=0.5;entryDx=0;entryDy=0;" parent="1" target="d-7TQ9NOi-kOvA5M9aPc-24" edge="1">
          <mxGeometry width="50" height="50" relative="1" as="geometry">
            <mxPoint x="-150" y="750" as="sourcePoint" />
            <mxPoint x="60" y="610" as="targetPoint" />
          </mxGeometry>
        </mxCell>
        <mxCell id="d-7TQ9NOi-kOvA5M9aPc-73" value="" style="endArrow=none;html=1;rounded=0;entryX=0;entryY=0.5;entryDx=0;entryDy=0;" parent="1" target="d-7TQ9NOi-kOvA5M9aPc-10" edge="1">
          <mxGeometry width="50" height="50" relative="1" as="geometry">
            <mxPoint x="-150" y="480" as="sourcePoint" />
            <mxPoint x="358" y="448" as="targetPoint" />
          </mxGeometry>
        </mxCell>
        <mxCell id="d-7TQ9NOi-kOvA5M9aPc-74" value="" style="endArrow=none;html=1;rounded=0;" parent="1" edge="1">
          <mxGeometry width="50" height="50" relative="1" as="geometry">
            <mxPoint x="-150" y="540" as="sourcePoint" />
            <mxPoint x="230" y="540" as="targetPoint" />
          </mxGeometry>
        </mxCell>
        <mxCell id="d-7TQ9NOi-kOvA5M9aPc-75" value="" style="endArrow=none;html=1;rounded=0;entryX=0;entryY=1;entryDx=0;entryDy=0;" parent="1" target="d-7TQ9NOi-kOvA5M9aPc-17" edge="1">
          <mxGeometry width="50" height="50" relative="1" as="geometry">
            <mxPoint x="-150" y="668" as="sourcePoint" />
            <mxPoint x="60" y="610" as="targetPoint" />
          </mxGeometry>
        </mxCell>
        <mxCell id="d-7TQ9NOi-kOvA5M9aPc-76" value="" style="endArrow=none;html=1;rounded=0;entryX=0;entryY=1;entryDx=0;entryDy=0;" parent="1" target="d-7TQ9NOi-kOvA5M9aPc-18" edge="1">
          <mxGeometry width="50" height="50" relative="1" as="geometry">
            <mxPoint x="-150" y="700" as="sourcePoint" />
            <mxPoint x="208" y="678" as="targetPoint" />
          </mxGeometry>
        </mxCell>
        <mxCell id="d-7TQ9NOi-kOvA5M9aPc-77" value="" style="endArrow=none;html=1;rounded=0;entryX=0;entryY=0.5;entryDx=0;entryDy=0;" parent="1" target="d-7TQ9NOi-kOvA5M9aPc-23" edge="1">
          <mxGeometry width="50" height="50" relative="1" as="geometry">
            <mxPoint x="-150" y="1140" as="sourcePoint" />
            <mxPoint x="50" y="760" as="targetPoint" />
          </mxGeometry>
        </mxCell>
        <mxCell id="d-7TQ9NOi-kOvA5M9aPc-78" value="" style="endArrow=none;html=1;rounded=0;" parent="1" target="d-7TQ9NOi-kOvA5M9aPc-30" edge="1">
          <mxGeometry width="50" height="50" relative="1" as="geometry">
            <mxPoint x="-150" y="800" as="sourcePoint" />
            <mxPoint x="60" y="740" as="targetPoint" />
          </mxGeometry>
        </mxCell>
        <mxCell id="d-7TQ9NOi-kOvA5M9aPc-79" value="" style="endArrow=none;html=1;rounded=0;entryX=0;entryY=0;entryDx=0;entryDy=0;" parent="1" target="d-7TQ9NOi-kOvA5M9aPc-31" edge="1">
          <mxGeometry width="50" height="50" relative="1" as="geometry">
            <mxPoint x="-150" y="810" as="sourcePoint" />
            <mxPoint x="310" y="775" as="targetPoint" />
            <Array as="points">
              <mxPoint x="318" y="800" />
            </Array>
          </mxGeometry>
        </mxCell>
        <mxCell id="d-7TQ9NOi-kOvA5M9aPc-80" value="" style="endArrow=none;html=1;rounded=0;entryX=0;entryY=0.5;entryDx=0;entryDy=0;" parent="1" target="d-7TQ9NOi-kOvA5M9aPc-25" edge="1">
          <mxGeometry width="50" height="50" relative="1" as="geometry">
            <mxPoint x="-150" y="860" as="sourcePoint" />
            <mxPoint x="310" y="775" as="targetPoint" />
          </mxGeometry>
        </mxCell>
        <mxCell id="d-7TQ9NOi-kOvA5M9aPc-81" value="" style="endArrow=none;html=1;rounded=0;entryX=0;entryY=0;entryDx=0;entryDy=0;" parent="1" target="d-7TQ9NOi-kOvA5M9aPc-32" edge="1">
          <mxGeometry width="50" height="50" relative="1" as="geometry">
            <mxPoint x="-150" y="870" as="sourcePoint" />
            <mxPoint x="208" y="663" as="targetPoint" />
          </mxGeometry>
        </mxCell>
        <mxCell id="d-7TQ9NOi-kOvA5M9aPc-82" value="" style="endArrow=none;html=1;rounded=0;entryX=0;entryY=0;entryDx=0;entryDy=0;" parent="1" target="d-7TQ9NOi-kOvA5M9aPc-27" edge="1">
          <mxGeometry width="50" height="50" relative="1" as="geometry">
            <mxPoint x="-150" y="952" as="sourcePoint" />
            <mxPoint x="328" y="952" as="targetPoint" />
          </mxGeometry>
        </mxCell>
        <mxCell id="d-7TQ9NOi-kOvA5M9aPc-83" value="" style="endArrow=none;html=1;rounded=0;entryX=0;entryY=0.5;entryDx=0;entryDy=0;" parent="1" target="d-7TQ9NOi-kOvA5M9aPc-28" edge="1">
          <mxGeometry width="50" height="50" relative="1" as="geometry">
            <mxPoint x="-150" y="1000" as="sourcePoint" />
            <mxPoint x="148" y="962" as="targetPoint" />
          </mxGeometry>
        </mxCell>
        <mxCell id="d-7TQ9NOi-kOvA5M9aPc-85" value="" style="endArrow=none;html=1;rounded=0;entryX=0;entryY=0.5;entryDx=0;entryDy=0;" parent="1" target="d-7TQ9NOi-kOvA5M9aPc-33" edge="1">
          <mxGeometry width="50" height="50" relative="1" as="geometry">
            <mxPoint x="-150" y="1060" as="sourcePoint" />
            <mxPoint x="15" y="1010" as="targetPoint" />
          </mxGeometry>
        </mxCell>
        <mxCell id="d-7TQ9NOi-kOvA5M9aPc-86" value="" style="endArrow=none;html=1;rounded=0;entryX=0;entryY=0.5;entryDx=0;entryDy=0;" parent="1" target="d-7TQ9NOi-kOvA5M9aPc-48" edge="1">
          <mxGeometry width="50" height="50" relative="1" as="geometry">
            <mxPoint x="-150" y="340" as="sourcePoint" />
            <mxPoint x="200" y="280" as="targetPoint" />
          </mxGeometry>
        </mxCell>
        <mxCell id="d-7TQ9NOi-kOvA5M9aPc-87" value="System" style="shape=umlActor;verticalLabelPosition=bottom;verticalAlign=top;html=1;outlineConnect=0;" parent="1" vertex="1">
          <mxGeometry x="940" y="730" width="30" height="60" as="geometry" />
        </mxCell>
        <mxCell id="d-7TQ9NOi-kOvA5M9aPc-88" value="" style="endArrow=none;html=1;rounded=0;" parent="1" edge="1">
          <mxGeometry width="50" height="50" relative="1" as="geometry">
            <mxPoint x="890" y="960" as="sourcePoint" />
            <mxPoint x="890" y="410" as="targetPoint" />
          </mxGeometry>
        </mxCell>
        <mxCell id="d-7TQ9NOi-kOvA5M9aPc-89" value="" style="endArrow=none;html=1;rounded=0;entryX=0;entryY=0.3333333333333333;entryDx=0;entryDy=0;entryPerimeter=0;" parent="1" target="d-7TQ9NOi-kOvA5M9aPc-87" edge="1">
          <mxGeometry width="50" height="50" relative="1" as="geometry">
            <mxPoint x="890" y="750" as="sourcePoint" />
            <mxPoint x="900" y="370" as="targetPoint" />
          </mxGeometry>
        </mxCell>
        <mxCell id="d-7TQ9NOi-kOvA5M9aPc-92" value="" style="endArrow=none;html=1;rounded=0;exitX=1;exitY=0.5;exitDx=0;exitDy=0;" parent="1" source="d-7TQ9NOi-kOvA5M9aPc-37" edge="1">
          <mxGeometry width="50" height="50" relative="1" as="geometry">
            <mxPoint x="900" y="1000" as="sourcePoint" />
            <mxPoint x="890" y="410" as="targetPoint" />
          </mxGeometry>
        </mxCell>
        <mxCell id="d-7TQ9NOi-kOvA5M9aPc-93" value="" style="endArrow=none;html=1;rounded=0;entryX=1;entryY=0.5;entryDx=0;entryDy=0;" parent="1" target="d-7TQ9NOi-kOvA5M9aPc-40" edge="1">
          <mxGeometry width="50" height="50" relative="1" as="geometry">
            <mxPoint x="890" y="545" as="sourcePoint" />
            <mxPoint x="900" y="420" as="targetPoint" />
          </mxGeometry>
        </mxCell>
        <mxCell id="d-7TQ9NOi-kOvA5M9aPc-94" value="" style="endArrow=none;html=1;rounded=0;entryX=1;entryY=0.5;entryDx=0;entryDy=0;" parent="1" target="d-7TQ9NOi-kOvA5M9aPc-43" edge="1">
          <mxGeometry width="50" height="50" relative="1" as="geometry">
            <mxPoint x="890" y="640" as="sourcePoint" />
            <mxPoint x="636" y="555" as="targetPoint" />
          </mxGeometry>
        </mxCell>
        <mxCell id="d-7TQ9NOi-kOvA5M9aPc-95" value="" style="endArrow=none;html=1;rounded=0;exitX=1;exitY=0.5;exitDx=0;exitDy=0;" parent="1" source="d-7TQ9NOi-kOvA5M9aPc-44" edge="1">
          <mxGeometry width="50" height="50" relative="1" as="geometry">
            <mxPoint x="900" y="650" as="sourcePoint" />
            <mxPoint x="890" y="740" as="targetPoint" />
          </mxGeometry>
        </mxCell>
        <mxCell id="d-7TQ9NOi-kOvA5M9aPc-96" value="" style="endArrow=none;html=1;rounded=0;entryX=1;entryY=0.5;entryDx=0;entryDy=0;" parent="1" target="d-7TQ9NOi-kOvA5M9aPc-45" edge="1">
          <mxGeometry width="50" height="50" relative="1" as="geometry">
            <mxPoint x="890" y="850" as="sourcePoint" />
            <mxPoint x="900" y="750" as="targetPoint" />
          </mxGeometry>
        </mxCell>
        <mxCell id="d-7TQ9NOi-kOvA5M9aPc-97" value="" style="endArrow=none;html=1;rounded=0;exitX=1;exitY=0.5;exitDx=0;exitDy=0;" parent="1" source="d-7TQ9NOi-kOvA5M9aPc-46" edge="1">
          <mxGeometry width="50" height="50" relative="1" as="geometry">
            <mxPoint x="900" y="860" as="sourcePoint" />
            <mxPoint x="890" y="960" as="targetPoint" />
          </mxGeometry>
        </mxCell>
        <mxCell id="d-7TQ9NOi-kOvA5M9aPc-98" value="Admin" style="shape=umlActor;verticalLabelPosition=bottom;verticalAlign=top;html=1;outlineConnect=0;" parent="1" vertex="1">
          <mxGeometry x="890" y="1060" width="30" height="60" as="geometry" />
        </mxCell>
        <mxCell id="d-7TQ9NOi-kOvA5M9aPc-99" value="" style="endArrow=none;html=1;rounded=0;exitX=1;exitY=0.5;exitDx=0;exitDy=0;entryX=0.25;entryY=0.1;entryDx=0;entryDy=0;entryPerimeter=0;" parent="1" source="d-7TQ9NOi-kOvA5M9aPc-34" target="d-7TQ9NOi-kOvA5M9aPc-98" edge="1">
          <mxGeometry width="50" height="50" relative="1" as="geometry">
            <mxPoint x="740" y="970" as="sourcePoint" />
            <mxPoint x="900" y="970" as="targetPoint" />
          </mxGeometry>
        </mxCell>
        <mxCell id="d-7TQ9NOi-kOvA5M9aPc-100" value="" style="endArrow=none;html=1;rounded=0;exitX=0;exitY=0.3333333333333333;exitDx=0;exitDy=0;entryX=1;entryY=0.5;entryDx=0;entryDy=0;exitPerimeter=0;" parent="1" source="d-7TQ9NOi-kOvA5M9aPc-98" target="d-7TQ9NOi-kOvA5M9aPc-35" edge="1">
          <mxGeometry width="50" height="50" relative="1" as="geometry">
            <mxPoint x="630" y="1050" as="sourcePoint" />
            <mxPoint x="908" y="1076" as="targetPoint" />
          </mxGeometry>
        </mxCell>
        <mxCell id="d-7TQ9NOi-kOvA5M9aPc-101" value="" style="endArrow=none;html=1;rounded=0;exitX=0;exitY=1;exitDx=0;exitDy=0;entryX=1;entryY=0.5;entryDx=0;entryDy=0;exitPerimeter=0;" parent="1" source="d-7TQ9NOi-kOvA5M9aPc-98" target="d-7TQ9NOi-kOvA5M9aPc-36" edge="1">
          <mxGeometry width="50" height="50" relative="1" as="geometry">
            <mxPoint x="900" y="1090" as="sourcePoint" />
            <mxPoint x="460" y="1100" as="targetPoint" />
          </mxGeometry>
        </mxCell>
      </root>
    </mxGraphModel>
  </diagram>
</mxfile>
